<svg width="45" height="49" viewBox="0 0 45 49" fill="none" xmlns="http://www.w3.org/2000/svg">
<path d="M44.5723 46.2097L42.0513 43.4652C42.2217 39.8158 42.5032 21.9307 32.5302 11.0731C23.9004 1.67847 10.2185 0.664246 4.73652 0.664246C3.16736 0.664246 2.22434 0.745328 2.18521 0.748764C1.56789 0.803049 1.07745 1.33627 1.02822 2.0083C0.965095 2.86655 -0.3983 23.1662 10.512 35.0429C19.1418 44.4376 32.825 45.4511 38.307 45.4511C39.1641 45.4511 39.8256 45.427 40.2643 45.4051L42.7879 48.1523C43.034 48.4209 43.3572 48.5549 43.6804 48.5549C44.0036 48.5549 44.3267 48.4209 44.5729 48.1523C45.0652 47.6156 45.0652 46.7464 44.5723 46.2097ZM12.2964 33.0996C3.66411 23.7022 3.38828 7.8944 3.49558 3.43207C3.84022 3.42108 4.25744 3.41352 4.73652 3.41352C9.90417 3.41352 22.7826 4.34941 30.7452 13.0171C38.3979 21.348 39.4823 34.7131 39.5555 40.7476L30.2408 30.608L31.4136 19.6652C31.4944 18.9114 30.9983 18.2291 30.3065 18.1411C29.6084 18.0546 28.9873 18.5933 28.9065 19.3464L27.9654 28.1302L21.5883 21.1886L20.6024 13.0652C20.5109 12.3128 19.8734 11.7809 19.1854 11.8826C18.4942 11.9822 18.0075 12.6728 18.0991 13.4252L18.6532 17.9941L11.2587 9.94347C10.7664 9.40681 9.96603 9.40681 9.47369 9.94347C8.98072 10.4801 8.98072 11.3501 9.47369 11.8867L16.8676 19.936L12.672 19.3326C11.9808 19.2337 11.3458 19.7628 11.2549 20.5152C11.1634 21.2677 11.6501 21.9582 12.3412 22.0579L19.802 23.1312L26.1791 30.0727L18.111 31.0973C17.4186 31.1852 16.9231 31.8676 17.0039 32.6214C17.079 33.3216 17.6244 33.8369 18.2562 33.8369C18.3048 33.8369 18.3541 33.8342 18.4039 33.8273L28.4552 32.5513L37.778 42.7004C32.3068 42.6338 20.0002 41.4863 12.2964 33.0996Z" fill="white"/>
</svg>
