<svg width="83" height="82" viewBox="0 0 83 82" fill="none" xmlns="http://www.w3.org/2000/svg">
<path d="M67.9474 21.0897C67.9339 20.8684 67.8398 20.6597 67.6828 20.5031C67.5258 20.3465 67.3169 20.2529 67.0955 20.2401C55.7108 19.5604 46.6052 22.9815 42.7355 29.3683C40.0984 33.7228 40.2048 38.8658 43.0165 43.9158C41.0323 46.0955 39.722 48.8033 39.2442 51.7119L33.9223 46.3899C35.8775 42.7649 35.9183 39.0651 34.0174 35.925C31.2035 31.2782 24.6105 28.7951 16.375 29.2776C16.1548 29.2915 15.9473 29.3853 15.7913 29.5413C15.6353 29.6973 15.5416 29.9048 15.5277 30.125C15.0451 38.356 17.5282 44.949 22.175 47.7629C23.6664 48.6784 25.3822 49.1631 27.1322 49.163C29.0639 49.1302 30.9569 48.6162 32.6399 47.6677L39.0312 54.0658V60.9375C39.0312 61.1778 39.1267 61.4083 39.2967 61.5783C39.4666 61.7482 39.6971 61.8437 39.9375 61.8437C40.1779 61.8437 40.4084 61.7482 40.5783 61.5783C40.7483 61.4083 40.8438 61.1778 40.8438 60.9375V54.2561C40.8352 50.9104 42.0698 47.6807 44.3079 45.1936C46.9111 46.6346 49.5347 47.3596 52.0654 47.3596C54.4494 47.36 56.787 46.7005 58.8192 45.4542C65.2037 41.5822 68.618 32.4767 67.9474 21.0897ZM23.113 46.2109C19.2002 43.8456 17.0547 38.211 17.2994 31.0494C24.461 30.8047 30.0956 32.9502 32.4609 36.8629C33.9291 39.2894 33.954 42.1577 32.5652 45.0396L26.0764 38.5463C25.904 38.3901 25.6782 38.3062 25.4456 38.3119C25.213 38.3176 24.9916 38.4126 24.8271 38.5771C24.6626 38.7416 24.5677 38.963 24.5619 39.1956C24.5562 39.4281 24.6401 39.654 24.7963 39.8264L31.2919 46.3219C28.4077 47.7108 25.5395 47.6858 23.113 46.2109ZM57.879 43.9C54.2427 46.1022 49.9289 46.0727 45.6265 43.8433L58.7037 30.7639C58.8666 30.5927 58.9562 30.3646 58.9534 30.1283C58.9506 29.892 58.8556 29.6661 58.6886 29.4988C58.5216 29.3316 58.2959 29.2362 58.0596 29.2329C57.8233 29.2297 57.5951 29.3189 57.4236 29.4815L44.3441 42.561C42.1148 38.2563 42.0785 33.9516 44.2875 30.3085C47.7109 24.6444 55.8603 21.579 66.1802 22.0072C66.6107 32.3272 63.534 40.4766 57.879 43.9Z" fill="black"/>
<circle cx="41.75" cy="41" r="40" stroke="black" stroke-width="2"/>
</svg>
