<svg width="166" height="27" viewBox="0 0 166 27" fill="none" xmlns="http://www.w3.org/2000/svg">
<g clip-path="url(#clip0_1_52)">
<path d="M21.2344 4.69995L21.9678 4.65155C21.9583 4.50758 21.9065 4.36962 21.8189 4.25494C21.7314 4.14025 21.6119 4.05395 21.4756 4.00682C21.3392 3.95969 21.192 3.95384 21.0523 3.99C20.9126 4.02615 20.7867 4.10271 20.6903 4.21008L21.2344 4.69995ZM20.504 9.03981C20.504 8.84532 20.4268 8.6588 20.2893 8.52127C20.1517 8.38374 19.9652 8.30648 19.7707 8.30648C19.5762 8.30648 19.3897 8.38374 19.2522 8.52127C19.1146 8.6588 19.0374 8.84532 19.0374 9.03981H20.504ZM0.733378 20.8333V20.0999C0.575915 20.0998 0.422572 20.1502 0.296033 20.244C0.169494 20.3377 0.0764805 20.4696 0.0307512 20.6203C-0.014978 20.771 -0.0109936 20.9324 0.0421149 21.0806C0.0952234 21.2289 0.194635 21.3561 0.325644 21.4434L0.733378 20.8333ZM2.19711 4.69995L2.88498 4.44328C2.83499 4.30939 2.74697 4.19301 2.63173 4.10848C2.51649 4.02394 2.37906 3.97491 2.23633 3.96744C2.09361 3.95996 1.95181 3.99435 1.82837 4.06638C1.70492 4.13841 1.60522 4.24494 1.54151 4.37288L2.19711 4.69995ZM8.05498 17.8999L8.57418 18.4177C8.66227 18.3293 8.72635 18.2199 8.76037 18.0999C8.79438 17.9798 8.79721 17.8531 8.76857 17.7317C8.73994 17.6102 8.68079 17.4981 8.59673 17.4059C8.51266 17.3137 8.40646 17.2445 8.28818 17.2047L8.05498 17.8999ZM18.6502 6.12701L18.1075 6.61981L18.3715 6.91168L18.7602 6.85301L18.6502 6.12701ZM20.504 4.74835C20.5788 5.88941 20.5084 6.58168 20.3236 7.10381C20.1447 7.60981 19.8308 8.02635 19.2632 8.57048L20.2782 9.62941C20.9206 9.01341 21.4163 8.40915 21.7067 7.59368C21.9898 6.79288 22.0484 5.86595 21.9678 4.65155L20.504 4.74835ZM20.504 10.1075V9.03981H19.0374V10.109H20.504V10.1075ZM10.252 9.16008V10.5666H11.7187V9.16008H10.252ZM10.252 10.5666V11.2999H11.7187V10.5666H10.252ZM15.4367 3.96661C14.7551 3.967 14.0802 4.10164 13.4506 4.36284C12.821 4.62405 12.249 5.0067 11.7673 5.48896C11.2856 5.97122 10.9036 6.54363 10.6431 7.17353C10.3826 7.80342 10.2487 8.47845 10.2491 9.16008H11.7158C11.7154 8.67093 11.8114 8.1865 11.9983 7.73446C12.1851 7.28241 12.4592 6.87162 12.8049 6.52553C13.1506 6.17945 13.5611 5.90486 14.0129 5.71744C14.4647 5.53003 14.949 5.43347 15.4382 5.43328V3.96661H15.4367ZM19.0359 10.1075C19.0374 16.4377 13.9143 21.5666 7.59738 21.5666V23.0333C14.7254 23.0333 20.504 17.2458 20.504 10.1075H19.0359ZM1.51071 4.95661C2.30858 7.08621 5.30058 11.2999 10.9854 11.2999V9.83328C6.12191 9.83328 3.55084 6.22528 2.88351 4.44328L1.51071 4.95661ZM1.54151 4.37288C0.00591078 7.44701 -0.230222 10.4302 0.885911 12.9705C1.99911 15.5034 4.39418 17.4511 7.82324 18.5951L8.28818 17.2047C5.12751 16.1487 3.12844 14.4298 2.22791 12.3794C1.33031 10.3363 1.46084 7.81808 2.85418 5.02701L1.54151 4.37288ZM7.53578 17.3822C6.65284 18.2666 3.99818 20.0999 0.733378 20.0999V21.5666C4.49684 21.5666 7.50498 19.4898 8.57418 18.4177L7.53578 17.3822ZM19.1943 5.63568C18.7201 5.10981 18.1407 4.68948 17.4936 4.40195C16.8466 4.11441 16.1463 3.96609 15.4382 3.96661V5.43328C16.4956 5.43328 17.4475 5.88941 18.1075 6.61981L19.1943 5.63568ZM18.7602 6.85301C19.9284 6.66215 20.9954 6.07483 21.7815 5.18981L20.6903 4.21008C20.1311 4.84183 19.3722 5.26271 18.5402 5.40248L18.7602 6.85301ZM0.325644 21.4434C2.73244 23.0479 5.25511 23.0333 7.59738 23.0333V21.5666C5.20671 21.5666 3.12698 21.5505 1.14111 20.2231L0.325644 21.4434Z" fill="white"/>
</g>
<g clip-path="url(#clip1_1_52)">
<path d="M54.38 1.5H63.62C67.14 1.5 70 4.36 70 7.88V17.12C70 18.8121 69.3278 20.4349 68.1313 21.6313C66.9349 22.8278 65.3121 23.5 63.62 23.5H54.38C50.86 23.5 48 20.64 48 17.12V7.88C48 6.18792 48.6722 4.56514 49.8687 3.36866C51.0651 2.17218 52.6879 1.5 54.38 1.5ZM54.16 3.7C53.1097 3.7 52.1025 4.11721 51.3599 4.85986C50.6172 5.6025 50.2 6.60974 50.2 7.66V17.34C50.2 19.529 51.971 21.3 54.16 21.3H63.84C64.8903 21.3 65.8975 20.8828 66.6401 20.1401C67.3828 19.3975 67.8 18.3903 67.8 17.34V7.66C67.8 5.471 66.029 3.7 63.84 3.7H54.16ZM64.775 5.35C65.1397 5.35 65.4894 5.49487 65.7473 5.75273C66.0051 6.01059 66.15 6.36033 66.15 6.725C66.15 7.08967 66.0051 7.43941 65.7473 7.69727C65.4894 7.95513 65.1397 8.1 64.775 8.1C64.4103 8.1 64.0606 7.95513 63.8027 7.69727C63.5449 7.43941 63.4 7.08967 63.4 6.725C63.4 6.36033 63.5449 6.01059 63.8027 5.75273C64.0606 5.49487 64.4103 5.35 64.775 5.35ZM59 7C60.4587 7 61.8576 7.57946 62.8891 8.61091C63.9205 9.64236 64.5 11.0413 64.5 12.5C64.5 13.9587 63.9205 15.3576 62.8891 16.3891C61.8576 17.4205 60.4587 18 59 18C57.5413 18 56.1424 17.4205 55.1109 16.3891C54.0795 15.3576 53.5 13.9587 53.5 12.5C53.5 11.0413 54.0795 9.64236 55.1109 8.61091C56.1424 7.57946 57.5413 7 59 7ZM59 9.2C58.1248 9.2 57.2854 9.54768 56.6665 10.1665C56.0477 10.7854 55.7 11.6248 55.7 12.5C55.7 13.3752 56.0477 14.2146 56.6665 14.8335C57.2854 15.4523 58.1248 15.8 59 15.8C59.8752 15.8 60.7146 15.4523 61.3335 14.8335C61.9523 14.2146 62.3 13.3752 62.3 12.5C62.3 11.6248 61.9523 10.7854 61.3335 10.1665C60.7146 9.54768 59.8752 9.2 59 9.2Z" fill="white"/>
</g>
<path d="M100.386 4C99.7549 4.0045 99.1505 4.25736 98.7039 4.70392C98.2574 5.15048 98.0045 5.75485 98 6.38636V22.6136C98 23.9185 99.0815 25 100.386 25H116.614C117.918 25 119 23.9185 119 22.6136V6.38636C119 5.0815 117.918 4 116.614 4H100.386ZM100.386 5.90909H116.614C116.886 5.90909 117.091 6.11432 117.091 6.38636V22.6136C117.092 22.6767 117.081 22.7393 117.057 22.7978C117.034 22.8563 116.999 22.9094 116.954 22.954C116.909 22.9986 116.856 23.0337 116.798 23.0572C116.739 23.0808 116.677 23.0922 116.614 23.0909H100.386C100.323 23.0923 100.261 23.081 100.202 23.0575C100.143 23.034 100.09 22.9989 100.046 22.9543C100.001 22.9097 99.966 22.8565 99.9425 22.798C99.919 22.7394 99.9077 22.6767 99.9091 22.6136V6.38636C99.9091 6.11432 100.114 5.90909 100.386 5.90909ZM103.191 7.54995C102.972 7.54468 102.754 7.5832 102.551 7.66327C102.347 7.74334 102.162 7.86332 102.005 8.01617C101.848 8.16901 101.724 8.35163 101.639 8.55328C101.554 8.75493 101.51 8.97153 101.51 9.19034C101.51 9.40915 101.554 9.62575 101.639 9.8274C101.724 10.029 101.848 10.2117 102.005 10.3645C102.162 10.5174 102.347 10.6373 102.551 10.7174C102.754 10.7975 102.972 10.836 103.191 10.8307C103.619 10.8204 104.026 10.643 104.325 10.3365C104.625 10.03 104.792 9.61867 104.792 9.19034C104.792 8.76201 104.625 8.35066 104.325 8.04415C104.026 7.73765 103.619 7.56028 103.191 7.54995ZM111.81 11.9046C110.443 11.9046 109.533 12.6539 109.157 13.366H109.097V12.1136H106.411V21.1818H109.216V16.7069C109.216 15.5252 109.451 14.3807 110.916 14.3807C112.359 14.3807 112.378 15.7151 112.378 16.767V21.1818H115.182V16.2C115.182 13.7621 114.663 11.9046 111.81 11.9046ZM101.818 12.1136V21.1818H104.652V12.1136H101.818Z" fill="white"/>
<g clip-path="url(#clip2_1_52)">
<path d="M165.16 3.59998H145.84C145.375 3.59998 145 3.97356 145 4.43598V23.664C145 24.1264 145.375 24.5 145.84 24.5H165.16C165.625 24.5 166 24.1264 166 23.664V4.43598C166 3.97356 165.625 3.59998 165.16 3.59998ZM164.32 22.828H159.487V16.4065H162.217L162.627 13.2532H159.487V11.2389C159.487 10.3246 159.742 9.70278 161.057 9.70278H162.734V6.88128C162.443 6.84209 161.448 6.75588 160.288 6.75588C157.868 6.75588 156.211 8.22671 156.211 10.9254V13.2506H153.476V16.4038H156.214V22.828H146.68V5.27198H164.32V22.828Z" fill="white"/>
</g>
<defs>
<clipPath id="clip0_1_52">
<rect width="22" height="22" fill="white" transform="translate(0 2.5)"/>
</clipPath>
<clipPath id="clip1_1_52">
<rect width="24" height="24" fill="white" transform="translate(46 1.5)"/>
</clipPath>
<clipPath id="clip2_1_52">
<rect width="21" height="22" fill="white" transform="translate(145 2.5)"/>
</clipPath>
</defs>
</svg>
