<svg width="22" height="23" viewBox="0 0 22 23" fill="none" xmlns="http://www.w3.org/2000/svg">
<path d="M6.38 0.5H15.62C19.14 0.5 22 3.36 22 6.88V16.12C22 17.8121 21.3278 19.4349 20.1313 20.6313C18.9349 21.8278 17.3121 22.5 15.62 22.5H6.38C2.86 22.5 0 19.64 0 16.12V6.88C0 5.18792 0.672177 3.56514 1.86866 2.36866C3.06514 1.17218 4.68792 0.5 6.38 0.5ZM6.16 2.7C5.10974 2.7 4.1025 3.11721 3.35986 3.85986C2.61721 4.6025 2.2 5.60974 2.2 6.66V16.34C2.2 18.529 3.971 20.3 6.16 20.3H15.84C16.8903 20.3 17.8975 19.8828 18.6401 19.1401C19.3828 18.3975 19.8 17.3903 19.8 16.34V6.66C19.8 4.471 18.029 2.7 15.84 2.7H6.16ZM16.775 4.35C17.1397 4.35 17.4894 4.49487 17.7473 4.75273C18.0051 5.01059 18.15 5.36033 18.15 5.725C18.15 6.08967 18.0051 6.43941 17.7473 6.69727C17.4894 6.95513 17.1397 7.1 16.775 7.1C16.4103 7.1 16.0606 6.95513 15.8027 6.69727C15.5449 6.43941 15.4 6.08967 15.4 5.725C15.4 5.36033 15.5449 5.01059 15.8027 4.75273C16.0606 4.49487 16.4103 4.35 16.775 4.35ZM11 6C12.4587 6 13.8576 6.57946 14.8891 7.61091C15.9205 8.64236 16.5 10.0413 16.5 11.5C16.5 12.9587 15.9205 14.3576 14.8891 15.3891C13.8576 16.4205 12.4587 17 11 17C9.54131 17 8.14236 16.4205 7.11091 15.3891C6.07946 14.3576 5.5 12.9587 5.5 11.5C5.5 10.0413 6.07946 8.64236 7.11091 7.61091C8.14236 6.57946 9.54131 6 11 6ZM11 8.2C10.1248 8.2 9.28542 8.54768 8.66655 9.16655C8.04768 9.78542 7.7 10.6248 7.7 11.5C7.7 12.3752 8.04768 13.2146 8.66655 13.8335C9.28542 14.4523 10.1248 14.8 11 14.8C11.8752 14.8 12.7146 14.4523 13.3335 13.8335C13.9523 13.2146 14.3 12.3752 14.3 11.5C14.3 10.6248 13.9523 9.78542 13.3335 9.16655C12.7146 8.54768 11.8752 8.2 11 8.2Z" fill="white"/>
</svg>
