<svg width="22" height="21" viewBox="0 0 22 21" fill="none" xmlns="http://www.w3.org/2000/svg">
<path d="M21.2344 1.69995L21.9678 1.65155C21.9583 1.50758 21.9065 1.36962 21.8189 1.25494C21.7314 1.14025 21.6119 1.05395 21.4756 1.00682C21.3392 0.959693 21.192 0.953842 21.0523 0.989997C20.9126 1.02615 20.7867 1.10271 20.6903 1.21008L21.2344 1.69995ZM20.504 6.03981C20.504 5.84532 20.4268 5.6588 20.2893 5.52127C20.1517 5.38374 19.9652 5.30648 19.7707 5.30648C19.5762 5.30648 19.3897 5.38374 19.2522 5.52127C19.1146 5.6588 19.0374 5.84532 19.0374 6.03981H20.504ZM0.733378 17.8333V17.0999C0.575915 17.0998 0.422572 17.1502 0.296033 17.244C0.169494 17.3377 0.0764805 17.4696 0.0307512 17.6203C-0.014978 17.771 -0.0109936 17.9324 0.0421149 18.0806C0.0952234 18.2289 0.194635 18.3561 0.325644 18.4434L0.733378 17.8333ZM2.19711 1.69995L2.88498 1.44328C2.83499 1.30939 2.74697 1.19301 2.63173 1.10848C2.51649 1.02394 2.37906 0.974915 2.23633 0.967436C2.09361 0.959957 1.95181 0.994347 1.82837 1.06638C1.70492 1.13841 1.60522 1.24494 1.54151 1.37288L2.19711 1.69995ZM8.05498 14.8999L8.57418 15.4177C8.66227 15.3293 8.72635 15.2199 8.76037 15.0999C8.79438 14.9798 8.79721 14.8531 8.76857 14.7317C8.73994 14.6102 8.68079 14.4981 8.59673 14.4059C8.51266 14.3137 8.40646 14.2445 8.28818 14.2047L8.05498 14.8999ZM18.6502 3.12701L18.1075 3.61981L18.3715 3.91168L18.7602 3.85301L18.6502 3.12701ZM20.504 1.74835C20.5788 2.88941 20.5084 3.58168 20.3236 4.10381C20.1447 4.60981 19.8308 5.02635 19.2632 5.57048L20.2782 6.62941C20.9206 6.01341 21.4163 5.40915 21.7067 4.59368C21.9898 3.79288 22.0484 2.86595 21.9678 1.65155L20.504 1.74835ZM20.504 7.10755V6.03981H19.0374V7.10901H20.504V7.10755ZM10.252 6.16008V7.56661H11.7187V6.16008H10.252ZM10.252 7.56661V8.29995H11.7187V7.56661H10.252ZM15.4367 0.966614C14.7551 0.966999 14.0802 1.10164 13.4506 1.36284C12.821 1.62405 12.249 2.0067 11.7673 2.48896C11.2856 2.97122 10.9036 3.54363 10.6431 4.17353C10.3826 4.80342 10.2487 5.47845 10.2491 6.16008H11.7158C11.7154 5.67093 11.8114 5.1865 11.9983 4.73446C12.1851 4.28241 12.4592 3.87162 12.8049 3.52553C13.1506 3.17945 13.5611 2.90486 14.0129 2.71744C14.4647 2.53003 14.949 2.43347 15.4382 2.43328V0.966614H15.4367ZM19.0359 7.10755C19.0374 13.4377 13.9143 18.5666 7.59738 18.5666V20.0333C14.7254 20.0333 20.504 14.2458 20.504 7.10755H19.0359ZM1.51071 1.95661C2.30858 4.08621 5.30058 8.29995 10.9854 8.29995V6.83328C6.12191 6.83328 3.55084 3.22528 2.88351 1.44328L1.51071 1.95661ZM1.54151 1.37288C0.00591078 4.44701 -0.230222 7.43021 0.885911 9.97048C1.99911 12.5034 4.39418 14.4511 7.82324 15.5951L8.28818 14.2047C5.12751 13.1487 3.12844 11.4298 2.22791 9.37941C1.33031 7.33635 1.46084 4.81808 2.85418 2.02701L1.54151 1.37288ZM7.53578 14.3822C6.65284 15.2666 3.99818 17.0999 0.733378 17.0999V18.5666C4.49684 18.5666 7.50498 16.4898 8.57418 15.4177L7.53578 14.3822ZM19.1943 2.63568C18.7201 2.10981 18.1407 1.68948 17.4936 1.40195C16.8466 1.11441 16.1463 0.966094 15.4382 0.966614V2.43328C16.4956 2.43328 17.4475 2.88941 18.1075 3.61981L19.1943 2.63568ZM18.7602 3.85301C19.9284 3.66215 20.9954 3.07483 21.7815 2.18981L20.6903 1.21008C20.1311 1.84183 19.3722 2.26271 18.5402 2.40248L18.7602 3.85301ZM0.325644 18.4434C2.73244 20.0479 5.25511 20.0333 7.59738 20.0333V18.5666C5.20671 18.5666 3.12698 18.5505 1.14111 17.2231L0.325644 18.4434Z" fill="white"/>
</svg>
